<?xml version="1.0" standalone="no"?><!DOCTYPE svg PUBLIC "-//W3C//DTD SVG 1.1//EN" "http://www.w3.org/Graphics/SVG/1.1/DTD/svg11.dtd"><svg t="1590376961594" class="icon" viewBox="0 0 1280 1024" version="1.1" xmlns="http://www.w3.org/2000/svg" p-id="1889" xmlns:xlink="http://www.w3.org/1999/xlink" width="160" height="128"><defs><style type="text/css"></style></defs><path d="M1120.32 0H159.808C71.616 0 0 77.632 0 173.056v677.888C0 946.368 71.68 1024 159.808 1024h960.512C1208.32 1024 1280 946.368 1280 850.944V173.056C1280 77.632 1208.32 0 1120.32 0zM440.576 811.712c-24.128 0-43.712-21.184-43.712-47.36 0-26.048 19.584-47.296 43.712-47.296 24.128 0 43.712 21.248 43.712 47.36s-19.584 47.36-43.712 47.36z m133.12 0c-24.128 0-43.712-21.184-43.712-47.36 0-26.048 19.584-47.296 43.712-47.296 24.128 0 43.712 21.248 43.712 47.36s-19.584 47.36-43.712 47.36z m133.12 0c-24.128 0-43.712-21.184-43.712-47.36 0-26.048 19.584-47.296 43.648-47.296 24.128 0 43.712 21.248 43.712 47.36s-19.584 47.36-43.712 47.36z m135.168 0c-24.128 0-43.712-21.184-43.712-47.36 0-26.048 19.584-47.296 43.712-47.296 24.128 0 43.712 21.248 43.712 47.36s-19.584 47.36-43.712 47.36z" fill="#BFCBD9" p-id="1890"></path></svg>